<?xml version="1.0" standalone="no"?>
<!DOCTYPE svg PUBLIC "-//W3C//DTD SVG 20010904//EN"
 "http://www.w3.org/TR/2001/REC-SVG-20010904/DTD/svg10.dtd">
<svg version="1.0" xmlns="http://www.w3.org/2000/svg"
 width="260.000000pt" height="260.000000pt" viewBox="0 0 260.000000 260.000000"
 preserveAspectRatio="xMidYMid meet">
<metadata>
Created by potrace 1.11, written by Peter Selinger 2001-2013
</metadata>
<g transform="translate(0.000000,260.000000) scale(0.100000,-0.100000)"
fill="#000000" stroke="none">
<path d="M915 2579 c-48 -26 -91 -73 -106 -117 -6 -18 -12 -82 -13 -144 l-2
-111 -74 -51 c-283 -190 -453 -512 -453 -856 0 -105 4 -138 23 -227 63 -290
270 -557 537 -692 133 -68 280 -108 417 -114 l68 -3 55 -89 c67 -110 87 -133
138 -156 73 -34 171 -20 228 34 53 48 68 96 71 222 l2 117 84 60 c197 139 339
337 404 559 30 106 39 168 38 290 0 151 -21 259 -74 387 -156 380 -499 622
-912 646 l-59 3 -54 89 c-30 49 -64 100 -76 113 -55 60 -169 79 -242 40z m188
-314 l72 -119 105 1 c382 6 704 -221 827 -582 31 -93 38 -147 37 -290 -1 -101
-5 -134 -28 -210 -49 -159 -111 -261 -231 -378 -54 -54 -166 -131 -231 -160
l-42 -19 -1 -151 c-1 -83 -5 -155 -10 -160 -11 -11 -23 5 -105 140 l-71 115
-135 3 c-112 2 -150 7 -223 29 -312 94 -530 331 -603 655 -3 14 -8 76 -10 136
-6 192 39 346 147 507 74 109 209 226 324 279 28 13 53 28 57 33 3 5 7 71 7
148 1 76 5 146 8 154 9 23 22 6 106 -131z"/>
<path d="M1386 1794 c53 -88 98 -161 100 -163 4 -5 321 -76 382 -86 l43 -7
-22 44 c-106 209 -307 348 -526 365 l-73 6 96 -159z"/>
<path d="M915 1825 c-69 -52 -122 -108 -165 -175 -33 -52 -76 -152 -85 -197
-2 -15 -7 -38 -9 -49 -12 -59 -9 -194 4 -194 6 0 25 14 43 31 17 17 85 79 150
137 64 58 117 106 118 106 2 3 9 386 7 386 -2 0 -30 -20 -63 -45z"/>
<path d="M1914 1377 c-10 -11 -154 -144 -248 -229 l-39 -35 -4 -192 -4 -193
61 43 c168 118 270 318 270 531 0 88 -8 106 -36 75z"/>
<path d="M716 1008 c102 -203 320 -348 536 -357 l57 -2 -96 158 c-52 87 -100
161 -105 164 -5 3 -68 18 -141 33 -73 16 -145 32 -162 36 -16 5 -49 12 -73 15
l-43 7 27 -54z"/>
</g>
</svg>
